<svg width="39" height="39" viewBox="0 0 39 39" fill="none" xmlns="http://www.w3.org/2000/svg">
<path d="M31.2298 34.2375L31.2298 15.0102C32.7721 14.4816 33.8864 12.9965 33.8864 11.2506C33.8864 9.50457 32.7721 8.01956 31.2298 7.49094L31.2298 4.4897C31.2298 3.79252 30.6746 3.22729 29.9898 3.22729C29.3049 3.22729 28.7497 3.79252 28.7497 4.4897L28.7497 7.49103C27.2074 8.01964 26.0931 9.50465 26.0931 11.2506C26.0931 12.9966 27.2074 14.4816 28.7497 15.0103L28.7497 34.2376C28.7497 34.9348 29.3049 35.5 29.9897 35.5C30.6746 35.5 31.2298 34.9348 31.2298 34.2375ZM28.5733 11.2506C28.5733 10.4555 29.2087 9.80864 29.9898 9.80864C30.7708 9.80864 31.4062 10.4555 31.4062 11.2506C31.4062 12.0456 30.7708 12.6925 29.9898 12.6925C29.2087 12.6925 28.5733 12.0456 28.5733 11.2506Z" fill="#EE46D3"/>
<path d="M20.6037 34.2375L20.6037 31.2362C22.146 30.7076 23.2602 29.2225 23.2602 27.4766C23.2602 25.7307 22.146 24.2457 20.6037 23.7171L20.6037 4.4897C20.6037 3.79252 20.0485 3.22729 19.3636 3.22729C18.6788 3.22729 18.1235 3.79252 18.1235 4.4897L18.1235 23.7171C16.5813 24.2457 15.467 25.7308 15.467 27.4767C15.467 29.2226 16.5813 30.7077 18.1235 31.2363L18.1235 34.2376C18.1235 34.9348 18.6788 35.5 19.3636 35.5C20.0485 35.5 20.6037 34.9348 20.6037 34.2375ZM17.9472 27.4767C17.9472 26.6816 18.5826 26.0348 19.3636 26.0348C20.1446 26.0348 20.7801 26.6816 20.7801 27.4767C20.7801 28.2717 20.1446 28.9186 19.3636 28.9186C18.5826 28.9186 17.9472 28.2717 17.9472 27.4767Z" fill="#EE46D3"/>
<path d="M9.97758 34.2375L9.97758 20.4189C11.5198 19.8903 12.6341 18.4053 12.6341 16.6593C12.6341 14.9133 11.5198 13.4283 9.97758 12.8997L9.97758 4.4897C9.97758 3.79251 9.42236 3.22729 8.7375 3.22729C8.05264 3.22729 7.49741 3.79251 7.49741 4.4897L7.49741 12.8997C5.95516 13.4283 4.8409 14.9133 4.8409 16.6593C4.8409 18.4053 5.95516 19.8903 7.49741 20.4189L7.49741 34.2376C7.49741 34.9348 8.05264 35.5 8.7375 35.5C9.42236 35.5 9.97758 34.9348 9.97758 34.2375ZM7.32099 16.6593C7.32099 15.8642 7.95641 15.2174 8.73741 15.2174C9.51842 15.2174 10.1538 15.8642 10.1538 16.6593C10.1538 17.4544 9.5185 18.1012 8.7375 18.1012C7.95649 18.1012 7.32099 17.4544 7.32099 16.6593Z" fill="#EE46D3"/>
</svg>
