<svg width="16" height="16" viewBox="0 0 16 16" fill="none" xmlns="http://www.w3.org/2000/svg">
<path opacity="0.7" fill-rule="evenodd" clip-rule="evenodd" d="M1.92418 2.61306C2.76048 1.76098 3.86053 1.33337 4.96663 1.33337C6.06316 1.33337 7.15993 1.75357 7.99994 2.59052C8.83951 1.754 9.93605 1.33337 11.0266 1.33337C12.1387 1.33337 13.239 1.76052 14.0757 2.61306L14.0768 2.61414C15.7493 4.32591 15.7508 7.0738 14.0757 8.78037L13.6214 9.24133L8.48193 14.4675C8.35666 14.5949 8.1855 14.6666 8.00683 14.6667C7.82817 14.6668 7.65696 14.5951 7.5316 14.4678L1.92528 8.7748C0.248451 7.07401 0.251301 4.3252 1.92312 2.61414L1.92418 2.61306ZM7.07245 3.54868C6.48845 2.95953 5.72769 2.66671 4.96663 2.66671C4.2063 2.66671 3.45324 2.95893 2.87628 3.54648C1.70873 4.74201 1.71197 6.65955 2.87465 7.83861L8.00628 13.0496L12.6713 8.30593L13.1242 7.84638C14.2885 6.65977 14.2905 4.74132 13.1237 3.54651C12.5471 2.95939 11.7943 2.66671 11.0266 2.66671C10.2729 2.66671 9.51186 2.95908 8.92742 3.54868L8.92686 3.54925L8.47477 4.00799C8.34948 4.13513 8.17844 4.20671 7.99994 4.20671C7.82144 4.20671 7.6504 4.13513 7.5251 4.00799L7.07301 3.54925L7.07245 3.54868Z" fill="#EE46D3"/>
</svg>
