<svg width="39" height="39" viewBox="0 0 39 39" fill="none" xmlns="http://www.w3.org/2000/svg">
<path fill-rule="evenodd" clip-rule="evenodd" d="M23.8525 31.7917C27.5798 27.0386 32.275 20.133 32.275 15.5061C32.275 7.83356 26.495 1.61377 19.365 1.61377C12.235 1.61377 6.45496 7.83356 6.45496 15.5061C6.45496 20.133 11.1501 27.0386 14.8775 31.7917C16.8221 34.2715 17.7944 35.5114 19.365 35.5114C20.9355 35.5114 21.9078 34.2715 23.8525 31.7917ZM19.365 20.9788C16.6912 20.9788 14.5237 18.8113 14.5237 16.1375C14.5237 13.4638 16.6912 11.2963 19.365 11.2963C22.0387 11.2963 24.2062 13.4638 24.2062 16.1375C24.2062 18.8113 22.0387 20.9788 19.365 20.9788Z" fill="#D6D6D6"/>
</svg>
