<svg width="19" height="21" viewBox="0 0 19 21" fill="none" xmlns="http://www.w3.org/2000/svg">
<path d="M0 10.5C0 10.9142 0.335786 11.25 0.75 11.25C1.16421 11.25 1.5 10.9142 1.5 10.5H0ZM19 10.5C19 10.0858 18.6642 9.75 18.25 9.75C17.8358 9.75 17.5 10.0858 17.5 10.5H19ZM3.42009 15.6997C3.15071 15.3851 2.67726 15.3484 2.36261 15.6178C2.04795 15.8871 2.01125 16.3606 2.28063 16.6753L3.42009 15.6997ZM15.5799 5.30026C15.8493 5.61491 16.3227 5.65161 16.6374 5.38223C16.952 5.11285 16.9888 4.6394 16.7194 4.32474L15.5799 5.30026ZM17.824 0.871654C17.8222 0.457444 17.4849 0.123159 17.0707 0.125007C16.6565 0.126856 16.3222 0.464137 16.324 0.878346L17.824 0.871654ZM17.0818 2.6125L17.8318 2.60915V2.60915L17.0818 2.6125ZM13.8618 5.8325L13.8584 6.58249L13.8618 5.8325ZM12.1276 5.07475C11.7134 5.07291 11.3761 5.40719 11.3743 5.8214C11.3724 6.23561 11.7067 6.57289 12.1209 6.57474L12.1276 5.07475ZM16.7243 5.16484L17.3174 5.62386L17.3174 5.62386L16.7243 5.16484ZM16.4141 5.47502L16.8731 6.06815L16.8731 6.06815L16.4141 5.47502ZM1.10412 20.058C1.10597 20.4722 1.44325 20.8065 1.85746 20.8046C2.27167 20.8028 2.60595 20.4655 2.60411 20.0513L1.10412 20.058ZM1.84636 18.3171L1.09637 18.3205L1.84636 18.3171ZM5.06636 15.0971L5.06971 14.3471L5.06636 15.0971ZM6.80051 15.8549C7.21472 15.8567 7.55201 15.5224 7.55385 15.1082C7.5557 14.694 7.22142 14.3567 6.80721 14.3549L6.80051 15.8549ZM2.20384 15.7648L1.61071 15.3058L1.61071 15.3058L2.20384 15.7648ZM2.51403 15.4546L2.05501 14.8615L2.055 14.8615L2.51403 15.4546ZM9.5 1C4.25329 1 0 5.25329 0 10.5H1.5C1.5 6.08172 5.08172 2.5 9.5 2.5V1ZM9.5 20C14.7467 20 19 15.7467 19 10.5H17.5C17.5 14.9183 13.9183 18.5 9.5 18.5V20ZM2.28063 16.6753C4.02186 18.7091 6.61058 20 9.5 20V18.5C7.06714 18.5 4.88851 17.4149 3.42009 15.6997L2.28063 16.6753ZM16.7194 4.32474C14.9781 2.29087 12.3894 1 9.5 1V2.5C11.9329 2.5 14.1115 3.58506 15.5799 5.30026L16.7194 4.32474ZM16.324 0.878346L16.3318 2.61584L17.8318 2.60915L17.824 0.871654L16.324 0.878346ZM13.8651 5.08251L12.1276 5.07475L12.1209 6.57474L13.8584 6.58249L13.8651 5.08251ZM16.3318 2.61584C16.3349 3.32629 16.3359 3.79575 16.2973 4.14914C16.2604 4.48745 16.1951 4.62314 16.1312 4.70582L17.3174 5.62386C17.6202 5.23262 17.7368 4.78496 17.7884 4.31198C17.8384 3.85409 17.8348 3.28433 17.8318 2.60915L16.3318 2.61584ZM13.8584 6.58249C14.5336 6.5855 15.1033 6.58918 15.5612 6.53918C16.0342 6.48752 16.4819 6.37092 16.8731 6.06815L15.9551 4.88189C15.8724 4.94587 15.7367 5.0111 15.3984 5.04804C15.045 5.08663 14.5756 5.08568 13.8651 5.08251L13.8584 6.58249ZM16.1312 4.70582C16.0801 4.77173 16.021 4.83088 15.9551 4.88189L16.8731 6.06815C17.0394 5.93944 17.1887 5.79016 17.3174 5.62386L16.1312 4.70582ZM2.60411 20.0513L2.59635 18.3138L1.09637 18.3205L1.10412 20.058L2.60411 20.0513ZM5.06302 15.8471L6.80051 15.8549L6.80721 14.3549L5.06971 14.3471L5.06302 15.8471ZM2.59635 18.3138C2.59318 17.6033 2.59223 17.1339 2.63082 16.7805C2.66776 16.4422 2.73299 16.3065 2.79697 16.2238L1.61071 15.3058C1.30794 15.697 1.19134 16.1447 1.13968 16.6177C1.08968 17.0756 1.09336 17.6453 1.09637 18.3205L2.59635 18.3138ZM5.06971 14.3471C4.39454 14.3441 3.82478 14.3405 3.36688 14.3905C2.8939 14.4421 2.44624 14.5587 2.05501 14.8615L2.97304 16.0477C3.05572 15.9838 3.19141 15.9185 3.52972 15.8816C3.88311 15.843 4.35257 15.844 5.06302 15.8471L5.06971 14.3471ZM2.79697 16.2238C2.84798 16.1579 2.90713 16.0988 2.97305 16.0477L2.055 14.8615C1.8887 14.9902 1.73942 15.1395 1.61071 15.3058L2.79697 16.2238Z" fill="#EE46D3"/>
</svg>
