<svg width="54" height="62" viewBox="0 0 54 62" fill="none" xmlns="http://www.w3.org/2000/svg">
<path d="M22.1041 42.5345C21.4578 42.6897 20.973 42.8449 20.4883 43.1554C19.8419 42.224 19.3572 41.1374 18.7109 40.3612C17.5798 38.8088 16.2871 37.4117 15.156 35.8594C13.3785 33.5308 11.9243 31.2023 11.2779 28.2528C9.82365 20.9568 14.0248 13.8159 21.2962 11.0217C30.8298 7.29607 41.8176 13.5055 43.2719 23.2853C43.9182 27.7871 42.4639 31.5128 39.8786 35.0832C38.7475 36.6355 37.2932 38.1879 36.1621 39.8955C35.3542 40.9821 34.8694 42.0688 34.0615 43.1554C33.7383 43.6211 33.4151 44.0868 32.9304 44.2421C29.2139 45.6392 25.4975 46.8811 21.781 48.1229C21.2962 48.2782 20.9731 48.1229 20.8115 47.8125C20.6499 47.3468 20.6499 46.8811 21.1347 46.7258C21.4578 46.5706 21.781 46.4153 22.1041 46.4153C25.3358 45.3287 28.5676 44.2421 31.7993 43.0002C32.1224 42.8449 32.4456 42.5345 32.6072 42.224C33.8999 39.8955 35.5158 38.0326 37.1316 35.8594C38.7475 33.8413 40.2017 31.9785 40.8481 29.4947C42.4639 24.5272 41.3328 20.1806 37.778 16.4549C33.7383 12.1084 28.5676 10.7112 22.7505 12.4188C16.9334 14.1264 13.7017 18.0073 12.5706 23.751C11.7627 27.7871 13.2169 31.2023 15.6407 34.307C17.095 36.1698 18.5493 38.0326 20.0035 39.8955C20.9731 40.5164 21.4578 41.4478 22.1041 42.5345Z" fill="#907CFF"/>
<path d="M21.296 57.9026C21.1344 57.7474 20.8113 57.5922 20.8113 57.2817C20.8113 56.9712 20.9729 56.6607 21.1345 56.3503C21.1345 56.195 21.4576 56.195 21.6192 56.195C25.1741 54.9532 28.8906 53.7113 32.4455 52.4694C33.2534 52.1589 33.5765 52.3142 33.7381 52.7799C33.8997 53.2456 33.5765 53.7113 32.9302 54.0217C29.2137 55.2636 25.6589 56.5055 21.9424 57.9026C21.7808 57.7474 21.6192 57.7474 21.296 57.9026Z" fill="#907CFF"/>
<path d="M21.296 52.7801C21.1344 52.6248 20.8113 52.4696 20.8113 52.1591C20.8113 51.8486 20.9729 51.5382 21.1345 51.2277C21.1345 51.0725 21.4576 51.0725 21.6192 51.0725C25.1741 49.8306 28.8906 48.5887 32.4455 47.3468C33.2534 47.0364 33.5766 47.1916 33.7381 47.6573C33.8997 48.123 33.7381 48.5887 32.9302 48.8992C29.2137 50.1411 25.6589 51.5382 21.9424 52.7801C21.7808 52.7801 21.6192 52.7801 21.296 52.7801Z" fill="#907CFF"/>
<path d="M32.9301 57.1266C31.799 60.8522 25.4972 63.0255 21.6191 61.0075C25.3356 59.7656 29.0521 58.3685 32.9301 57.1266Z" fill="#907CFF"/>
<path d="M28.0827 2.79423C28.0827 3.41517 28.0827 4.03612 28.0827 4.65706C28.0827 5.12276 27.7595 5.43323 27.2747 5.43323C26.79 5.43323 26.4668 5.12276 26.4668 4.65706C26.4668 3.41517 26.4668 2.17329 26.4668 0.776176C26.4668 0.31047 26.79 0 27.2747 0C27.7595 0 28.0827 0.31047 28.0827 0.776176C28.0827 1.39712 28.0827 2.17329 28.0827 2.79423Z" fill="#907CFF"/>
<path d="M3.68318 24.5272C4.32952 24.5272 4.97589 24.5272 5.62223 24.5272C6.26857 24.5272 6.59175 24.8375 6.59175 25.303C6.59175 25.7685 6.26857 26.0788 5.62223 26.0788C4.32954 26.0788 3.03687 26.0788 1.74418 26.0788C1.09784 26.0788 0.774658 25.7685 0.774658 25.303C0.774658 24.8375 1.09784 24.5272 1.74418 24.5272C2.39053 24.5272 3.03684 24.5272 3.68318 24.5272Z" fill="#907CFF"/>
<path d="M50.8666 26.2341C50.2203 26.2341 49.5739 26.2341 48.9276 26.2341C48.4428 26.2341 48.1196 25.9238 48.1196 25.4583C48.1196 24.9928 48.4428 24.6825 48.9276 24.6825C50.2202 24.6825 51.6745 24.6825 52.9672 24.6825C53.452 24.6825 53.7751 24.9928 53.7751 25.4583C53.7751 25.9238 53.452 26.2341 52.9672 26.2341C52.1593 26.2341 51.5129 26.2341 50.8666 26.2341Z" fill="#907CFF"/>
<path d="M8.85411 6.83057C9.17728 6.9858 9.33885 7.14104 9.50044 7.29627C10.47 8.22768 11.2779 9.00386 12.2474 9.93527C12.7322 10.401 12.7322 10.7114 12.2474 11.1772C11.9242 11.4876 11.4395 11.4876 10.9547 11.1772C9.98519 10.2457 9.0157 9.46956 8.20777 8.53815C8.04619 8.38292 7.88459 7.91721 8.04618 7.60674C8.20776 7.14104 8.69252 6.9858 8.85411 6.83057Z" fill="#907CFF"/>
<path d="M42.6254 39.2745C42.9485 39.4298 43.1101 39.585 43.2717 39.7402C44.2412 40.5164 45.0492 41.4478 46.0187 42.224C46.5034 42.6897 46.5034 43.1554 46.1803 43.4659C45.8571 43.7764 45.3723 43.7764 44.8876 43.3107C43.918 42.3792 43.1101 41.6031 42.1406 40.6717C41.979 40.5164 41.8175 40.0507 41.979 39.7402C41.979 39.585 42.3022 39.4298 42.6254 39.2745Z" fill="#907CFF"/>
<path d="M46.5033 7.76174C46.3417 8.07221 46.1802 8.22745 46.0186 8.38268C45.0491 9.31409 44.2411 10.0903 43.2716 11.0217C42.9484 11.3322 42.4637 11.4874 41.979 11.0217C41.6558 10.7112 41.6558 10.2455 41.979 9.7798C42.9485 8.84839 43.7564 7.91698 44.7259 7.1408C44.8875 6.98557 45.3722 6.83033 45.6954 6.98557C46.0186 7.1408 46.1802 7.60651 46.5033 7.76174Z" fill="#907CFF"/>
<path d="M8.85365 43.7762C8.69206 43.621 8.3689 43.4657 8.20731 43.1553C8.04573 43 8.20731 42.5343 8.20731 42.3791C9.17683 41.4477 10.1463 40.361 11.2774 39.4296C11.6006 39.1192 12.0853 39.1192 12.4085 39.4296C12.7317 39.7401 12.7317 40.2058 12.4085 40.5163C11.439 41.4477 10.4695 42.3791 9.49998 43.3105C9.33839 43.621 9.17682 43.7762 8.85365 43.7762Z" fill="#907CFF"/>
</svg>
