<svg width="64" height="62" viewBox="0 0 64 62" fill="none" xmlns="http://www.w3.org/2000/svg">
<path d="M61.6348 1.76849C60.6901 1.76849 59.588 1.76849 58.6433 1.76849C52.188 2.07896 46.0475 3.47607 40.2219 6.27031C33.1368 9.53025 27.1537 14.1873 22.4303 20.3967C19.1239 24.5881 16.7622 29.2451 15.0302 34.2126C14.8728 34.5231 15.0302 34.6784 15.1877 34.8336C16.6047 36.2307 18.0218 37.6278 19.4388 39.0249C19.5962 39.1802 19.7537 39.4906 19.7537 39.8011C19.7537 40.1116 19.5962 40.4221 19.2813 40.5773C18.9664 40.7325 18.4941 40.7325 18.3367 40.4221C17.5494 39.6459 16.9196 39.0249 16.1324 38.2488C15.1877 37.3174 14.4005 36.3859 13.4558 35.6098C13.1409 35.2993 12.9834 34.8336 13.1409 34.3679C15.1877 28.3137 18.1792 22.7252 22.4303 17.7577C26.6814 12.635 31.8772 8.59884 37.7027 5.64937C43.056 2.85513 48.8816 1.14755 54.8646 0.37137C57.3837 0.0608995 59.9029 -0.0943357 62.4221 0.0608995C63.2093 0.0608995 63.3668 0.37137 63.5242 1.14755C63.8391 11.2378 61.3199 20.552 55.8093 29.2451C50.2986 37.7831 42.7411 44.1477 33.2942 48.1838C31.8772 48.8048 30.3027 49.2705 28.7282 49.8914C28.2559 50.0466 27.941 50.0466 27.6261 49.5809C26.0516 48.0286 24.3197 46.321 22.7452 44.7686C22.4303 44.4582 22.2728 43.9925 22.5877 43.5268C22.9026 43.0611 23.5324 43.0611 24.0048 43.5268C25.4218 44.9239 26.8388 46.321 28.2559 47.7181C28.5708 48.0286 28.7282 48.0286 29.0431 47.8733C35.9708 45.5448 42.1113 41.8192 47.3071 36.8516C53.4475 30.9527 57.5412 23.9671 59.9029 16.0501C61.1625 11.7035 61.7923 7.20172 61.7923 2.54466C61.7923 2.23419 61.6348 2.07896 61.6348 1.76849Z" fill="#7000FF" fill-opacity="0.6"/>
<path d="M52.9748 19.9309C52.9748 25.2089 48.7237 29.4002 43.3704 29.4002C38.0172 29.4002 33.7661 25.2089 33.7661 19.9309C33.7661 14.8081 38.0172 10.4615 43.213 10.4615C48.7237 10.4615 52.9748 14.6529 52.9748 19.9309ZM51.0854 20.0861C51.0854 15.7395 47.6215 12.3244 43.213 12.3244C38.8044 12.3244 35.3406 15.7395 35.3406 20.0861C35.3406 24.4327 38.8044 27.8479 43.213 27.8479C47.6215 27.6927 51.0854 24.2775 51.0854 20.0861Z" fill="#7000FF" fill-opacity="0.6"/>
<path d="M28.8853 59.6712C29.9874 59.0502 31.0895 58.274 32.0342 57.4979C35.1832 54.7036 36.9151 51.2884 37.7023 47.2523C37.8598 46.6314 38.1747 46.3209 38.647 46.3209C39.2768 46.3209 39.5917 46.7866 39.5917 47.4076C39.4343 48.1837 39.2768 49.1152 38.9619 49.8913C37.23 55.1693 34.081 59.0502 29.2002 61.6892C28.098 62.3101 27.6257 61.9997 27.4682 60.913C26.8384 57.6531 26.2086 54.2379 25.5789 50.978C25.5789 50.6675 25.5789 50.357 25.5789 50.2018C25.7363 49.8913 26.0512 49.7361 26.5235 49.7361C26.8384 49.7361 27.1533 50.0466 27.3108 50.357C27.4682 51.2885 27.6257 52.2199 27.9406 53.3065C28.098 55.4798 28.5704 57.4979 28.8853 59.6712Z" fill="#7000FF" fill-opacity="0.6"/>
<path d="M2.90638 34.0574C3.85106 34.2126 4.79575 34.3679 5.58299 34.5231C7.78726 34.9888 9.99153 35.2993 12.0384 35.765C12.1958 35.765 12.1958 35.765 12.3533 35.765C12.8256 35.9202 13.1405 36.3859 12.983 36.8516C12.8256 37.3173 12.5107 37.6278 11.8809 37.4726C10.6213 37.1621 9.20429 37.0069 7.94471 36.6964C5.89789 36.2307 3.85106 35.9202 1.64679 35.4545C1.48934 35.4545 1.48934 35.4545 1.3319 35.4545C0.544656 35.2993 0.387208 34.8336 0.702103 34.0574C1.64679 32.3498 2.74893 30.6422 4.16596 29.2451C7.15747 26.1404 10.7788 24.4328 14.8724 23.5014C15.0299 23.5014 15.1873 23.5014 15.1873 23.3462C15.6597 23.1909 16.132 23.5014 16.2895 23.9671C16.4469 24.4328 16.132 24.8985 15.5022 25.0538C14.5575 25.3642 13.4554 25.5195 12.5107 25.8299C8.41705 27.227 5.2681 29.7108 2.90638 33.2812C3.06382 33.7469 3.06382 33.9022 2.90638 34.0574Z" fill="#7000FF" fill-opacity="0.6"/>
<path d="M14.085 47.8733C14.2424 47.7181 14.3999 47.4076 14.5573 47.2524C17.5488 44.3029 20.3829 41.5087 23.3744 38.5592C24.4765 37.4726 25.4212 36.5411 26.5233 35.4545C26.9957 34.9888 27.468 34.9888 27.9404 35.2993C28.2553 35.6097 28.2553 36.2307 27.7829 36.6964C24.3191 40.1116 20.8552 43.682 17.2339 47.0971C16.7616 47.5628 16.2892 48.1838 15.6594 48.6495C15.3445 48.96 15.0296 48.96 14.7148 48.8047C14.2424 48.6495 14.085 48.339 14.085 47.8733Z" fill="#7000FF" fill-opacity="0.6"/>
<path d="M9.99151 51.9095C10.3064 52.0648 10.6213 52.22 10.7788 52.5305C10.9362 52.841 10.7788 53.1514 10.6213 53.4619C10.4639 53.6171 10.149 53.9276 9.99151 54.2381C8.10214 56.1009 6.21276 58.119 4.16594 59.9818C3.85104 60.137 3.69359 60.2922 3.3787 60.2922C3.0638 60.2922 2.74891 60.137 2.59146 59.8265C2.43401 59.3608 2.43401 59.0504 2.74891 58.7399C4.00849 57.498 5.26807 56.2561 6.52766 55.0143C7.47234 54.0828 8.25958 53.3067 9.20427 52.3753C9.51917 52.22 9.67662 52.0648 9.99151 51.9095Z" fill="#7000FF" fill-opacity="0.6"/>
<path d="M8.57453 45.5449C9.36177 45.5449 9.83411 46.3211 9.51921 46.7868C9.36177 46.942 9.36177 47.0973 9.20432 47.2525C7.1575 49.2706 5.11067 51.2886 3.06385 53.3067L2.9064 53.4619C2.43406 53.7724 1.96171 53.9276 1.64682 53.4619C1.33192 53.1514 1.33192 52.5305 1.64682 52.22C3.2213 50.6677 4.79578 49.1153 6.37025 47.563C7.00005 46.942 7.47239 46.4763 8.10218 46.0106C8.25963 45.7002 8.57453 45.5449 8.57453 45.5449Z" fill="#7000FF" fill-opacity="0.6"/>
<path d="M17.3916 54.2382C17.3916 54.3934 17.2342 54.5486 17.0767 54.8591C14.8725 57.0324 12.8256 59.0505 10.6214 61.2237C10.149 61.6895 9.67667 61.6895 9.20433 61.2237C8.88943 60.9133 8.88943 60.2923 9.36177 59.9819C11.566 57.8086 13.6129 55.7905 15.8171 53.6172C16.132 53.3068 16.4469 53.1515 16.9193 53.3067C17.2342 53.462 17.3916 53.6172 17.3916 54.2382Z" fill="#7000FF" fill-opacity="0.6"/>
</svg>
