<svg width="47" height="47" viewBox="0 0 47 47" fill="none" xmlns="http://www.w3.org/2000/svg">
<path d="M35.5531 17.9856C36.1554 17.3128 36.0983 16.2792 35.4256 15.6769C34.7528 15.0746 33.7192 15.1317 33.1169 15.8044L25.7721 24.0081C24.2838 25.6705 23.2815 26.7841 22.4246 27.5043C21.6083 28.1904 21.1288 28.34 20.71 28.34C20.2912 28.34 19.8117 28.1904 18.9954 27.5043C18.1385 26.7841 17.1362 25.6705 15.6479 24.0081L13.7531 21.8918C13.1508 21.219 12.1172 21.1619 11.4444 21.7642C10.7717 22.3665 10.7146 23.4002 11.3169 24.0729L13.2926 26.2797C14.6788 27.8281 15.8349 29.1196 16.8914 30.0075C18.009 30.9469 19.2144 31.61 20.71 31.61C22.2056 31.61 23.411 30.9469 24.5286 30.0075C25.585 29.1196 26.7412 27.8281 28.1273 26.2798L35.5531 17.9856Z" fill="#EE46D3"/>
<path fill-rule="evenodd" clip-rule="evenodd" d="M23.435 0C10.4922 0 0 10.4922 0 23.435C0 36.3778 10.4922 46.87 23.435 46.87C36.3778 46.87 46.87 36.3778 46.87 23.435C46.87 10.4922 36.3778 0 23.435 0ZM3.27 23.435C3.27 12.2982 12.2982 3.27 23.435 3.27C34.5718 3.27 43.6 12.2982 43.6 23.435C43.6 34.5718 34.5718 43.6 23.435 43.6C12.2982 43.6 3.27 34.5718 3.27 23.435Z" fill="#EE46D3"/>
</svg>
